HIERARCHY
ROOT Hips
{
	OFFSET 0.00000 0.00000 0.00000
	CHANNELS 6 Xposition Yposition Zposition Zrotation Yrotation Xrotation 
	JOINT LHipJoint
	{
		OFFSET 0 0 0
		CHANNELS 3 Zrotation Yrotation Xrotation
		JOINT LeftHip
		{
			OFFSET 1.52977 -1.71332 0.88991
			CHANNELS 3 Zrotation Yrotation Xrotation
			JOINT LeftKnee
			{
				OFFSET 2.23949 -6.15296 0.00000
				CHANNELS 3 Zrotation Yrotation Xrotation
				JOINT LeftAnkle
				{
					OFFSET 2.68396 -7.37412 0.00000
					CHANNELS 3 Zrotation Yrotation Xrotation
					JOINT LeftToe
					{
						OFFSET 0.20538 -0.56428 2.52710
						CHANNELS 3 Zrotation Yrotation Xrotation
						End Site
						{
							OFFSET 0.00000 -0.00000 1.29919
						}
					}
				}
			}
		}
	}
	JOINT RHipJoint
	{
		OFFSET 0 0 0
		CHANNELS 3 Zrotation Yrotation Xrotation
		JOINT RightHip
		{
			OFFSET -1.45689 -1.71333 0.88991
			CHANNELS 3 Zrotation Yrotation Xrotation
			JOINT RightKnee
			{
				OFFSET -2.36700 -6.50329 0.00000
				CHANNELS 3 Zrotation Yrotation Xrotation
				JOINT RightAnkle
				{
					OFFSET -2.69814 -7.41308 0.00000
					CHANNELS 3 Zrotation Yrotation Xrotation
					JOINT RightToe
					{
						OFFSET -0.18734 -0.51471 2.37479
						CHANNELS 3 Zrotation Yrotation Xrotation
						End Site
						{
							OFFSET -0.00000 -0.00000 1.22113
						}
					}
				}
			}
		}
	}
	JOINT lowerback
	{
		OFFSET 0 0 0
		CHANNELS 3 Zrotation Yrotation Xrotation
		JOINT Chest
		{
			OFFSET 0.04294 2.14638 -0.31163
			CHANNELS 3 Zrotation Yrotation Xrotation
			JOINT Chest2
			{
				OFFSET -0.00400 2.17216 0.01486
				CHANNELS 3 Zrotation Yrotation Xrotation
				JOINT lowerneck
				{
					OFFSET 0 0 0
					CHANNELS 3 Zrotation Yrotation Xrotation
					JOINT Neck
					{
						OFFSET 0.03869 1.76598 0.14916
						CHANNELS 3 Zrotation Yrotation Xrotation
						JOINT Head
						{
							OFFSET -0.00760 1.75513 -0.18948
							CHANNELS 3 Zrotation Yrotation Xrotation
							End Site
							{
								OFFSET -0.00601 1.82444 -0.08310
							}
						}
					}
				}
				JOINT LeftCollar
				{
					OFFSET 0 0 0
					CHANNELS 3 Zrotation Yrotation Xrotation
					JOINT LeftShoulder
					{
						OFFSET 3.73696 0.92058 0.01733
CHANNELS 3 Zrotation Xrotation Yrotation
						JOINT LeftElbow
						{
OFFSET 0 -5.227710 0.000000
CHANNELS 3 Zrotation Xrotation Yrotation
							JOINT LeftWrist
							{
OFFSET 0 -3.452510 0.000000
CHANNELS 3 Zrotation Xrotation Yrotation
								JOINT lhand
								{
									OFFSET 0 0 0
CHANNELS 3 Zrotation Xrotation Yrotation
									JOINT LFingers
									{
OFFSET 0 -0.552120 0.000000
CHANNELS 3 Zrotation Xrotation Yrotation
										End Site
										{
OFFSET 0 -0.445130 0.000000
										}
									}
								}
								JOINT LThumb
								{
OFFSET 0 0.000000 0.000000
CHANNELS 3 Zrotation Xrotation Yrotation
									End Site
									{
OFFSET 0 -0.451930 0.451930
									}
								}
							}
						}
					}
				}
				JOINT RightCollar
				{
					OFFSET 0 0 0
					CHANNELS 3 Zrotation Yrotation Xrotation
					JOINT RightShoulder
					{
						OFFSET -3.63819 0.83094 -0.13694
CHANNELS 3 Zrotation Xrotation Yrotation
						JOINT RightElbow
						{
OFFSET 0 -5.239800 -0.000000
CHANNELS 3 Zrotation Xrotation Yrotation
							JOINT RightWrist
							{
OFFSET 0 -3.480420 -0.000000
CHANNELS 3 Zrotation Xrotation Yrotation
								JOINT rhand
								{
									OFFSET 0 0 0
CHANNELS 3 Zrotation Xrotation Yrotation
									JOINT RFingers
									{
OFFSET 0 -0.618710 0.000000
CHANNELS 3 Zrotation Xrotation Yrotation
										End Site
										{
OFFSET 0 -0.498820 0.000000
										}
									}
								}
								JOINT RThumb
								{
OFFSET 0 0.000000 0.000000
CHANNELS 3 Zrotation Xrotation Yrotation
									End Site
									{
OFFSET 0 -0.506440 0.506440
									}
								}
							}
						}
					}
				}
			}
		}
	}
}
MOTION
Frames: 8
Frame Time: 0.008333333333333333
46.461600 16.780200 -4.629900 -47.781400 85.000800 -21.666800 0.000000 0.000000 0.000000 -17.427800 -2.104500 -32.562800 0.783800 5.652200 15.778400 0.121800 -5.300200 -6.750300 0.232700 -3.104700 -8.570400 0.000000 0.000000 0.000000 17.543600 20.126200 -36.488700 -2.688300 -10.172500 29.537100 -0.613900 -6.331200 -18.447900 -0.148700 -2.484700 6.847300 3.870100 -1.396700 14.922900 -0.009600 -1.053300 5.086800 -2.020200 -0.410200 -3.048900 2.119500 0.128400 2.613100 1.877700 1.113300 -19.206600 0.152800 0.440400 -6.251500 0.000000 0.000000 0.000000 3.814900 -1.785600 -28.355400 21.531700 -32.443700 6.332800 20.387700 -23.387400 -11.933300 0.000000 0.000000 0.000000 -7.125000 0.000000 0.000000 -6.156100 42.603200 -0.365600 0.000000 0.000000 0.000000 -0.825600 -3.793600 30.361800 -16.310900 -25.940300 -3.780900 -22.487300 3.140600 7.810700 0.000000 0.000000 0.000000 7.125000 0.000000 -0.000000 3.744300 38.399500 0.609700
46.464347 16.780300 -4.631008 -47.905136 85.003267 -21.794768 0.000000 0.000000 0.000000 -17.415816 -2.114646 -32.547914 0.784561 5.654546 15.785407 0.121308 -5.306207 -6.741167 0.225346 -3.055417 -8.433051 0.000000 0.000000 0.000000 17.543858 20.149437 -36.459665 -2.688177 -10.172285 29.536309 -0.614608 -6.357563 -18.475639 -0.150892 -2.502840 6.897435 3.880741 -1.396992 14.907667 -0.018940 -1.053599 5.082537 -2.036110 -0.410454 -3.045447 2.119905 0.146204 2.703616 1.881786 1.142383 -19.247002 0.151924 0.452987 -6.280127 0.000000 0.000000 0.000000 3.841975 -1.805221 -28.372448 21.548835 -32.463381 6.341941 20.405513 -23.436741 -11.866135 0.000000 0.000000 0.000000 -7.125000 0.000000 0.000000 -6.128327 42.534320 -0.374352 0.000000 0.000000 0.000000 -0.805422 -3.795136 30.411696 -16.328063 -25.963464 -3.788493 -22.438740 3.135005 7.915195 0.000000 0.000000 0.000000 7.125000 0.000000 0.000000 3.796937 38.508395 0.608085
46.467447 16.780300 -4.632216 -47.969355 85.018733 -21.864611 0.000000 0.000000 0.000000 -17.432779 -2.112178 -32.528924 0.783992 5.652738 15.780152 0.121439 -5.313731 -6.746686 0.229854 -3.085672 -8.517415 0.000000 0.000000 0.000000 17.530182 20.151555 -36.445833 -2.689485 -10.174531 29.543802 -0.615293 -6.362907 -18.486743 -0.149300 -2.489823 6.861438 3.884716 -1.399923 14.891395 -0.024955 -1.058131 5.078983 -2.044056 -0.412769 -3.041030 2.150436 0.155956 2.695765 1.852354 1.150763 -19.206414 0.137027 0.457186 -6.265582 0.000000 0.000000 0.000000 3.855711 -1.807762 -28.371871 21.595496 -32.516913 6.367037 20.375895 -23.451560 -11.874816 0.000000 0.000000 0.000000 -7.125000 0.000000 0.000000 -6.156320 42.540362 -0.375177 0.000000 0.000000 0.000000 -0.796314 -3.797745 30.447233 -16.348137 -25.990408 -3.797233 -22.411107 3.131537 7.945567 0.000000 0.000000 0.000000 7.125000 0.000000 0.000000 3.823970 38.539052 0.609539
46.470771 16.780246 -4.633477 -48.038163 85.024932 -21.941867 0.000000 0.000000 0.000000 -17.436391 -2.119829 -32.498664 0.783354 5.650408 15.773431 0.122277 -5.305556 -6.761594 0.232878 -3.105902 -8.573751 0.000000 0.000000 0.000000 17.526770 20.152254 -36.424674 -2.690708 -10.176616 29.550601 -0.617131 -6.356606 -18.501913 -0.148530 -2.483789 6.844753 3.889895 -1.395521 14.876825 -0.025915 -1.052727 5.072874 -2.049025 -0.410322 -3.039376 2.170047 0.158329 2.687160 1.818746 1.146356 -19.157698 0.123540 0.456036 -6.248260 0.000000 0.000000 0.000000 3.864064 -1.808577 -28.383475 21.636579 -32.563904 6.389125 20.356863 -23.466027 -11.885498 0.000000 0.000000 0.000000 -7.125000 0.000000 0.000000 -6.175207 42.549729 -0.374930 0.000000 0.000000 0.000000 -0.797695 -3.790873 30.481261 -16.371102 -26.021275 -3.807320 -22.387707 3.109083 7.970772 0.000000 0.000000 0.000000 7.125000 0.000000 0.000000 3.846746 38.564456 0.610855
46.474156 16.780061 -4.634831 -48.173811 85.024213 -22.088710 0.000000 0.000000 0.000000 -17.427608 -2.129057 -32.470440 0.783931 5.652548 15.779591 0.123709 -5.294442 -6.787008 0.235856 -3.125688 -8.628854 0.000000 0.000000 0.000000 17.537279 20.147527 -36.397291 -2.690723 -10.176684 29.550853 -0.618139 -6.351023 -18.508947 -0.147476 -2.474414 6.818628 3.900230 -1.388319 14.867205 -0.023167 -1.042409 5.066427 -2.053841 -0.405482 -3.040378 2.191896 0.153236 2.663628 1.781574 1.130546 -19.101643 0.109301 0.449643 -6.226082 0.000000 0.000000 0.000000 3.872114 -1.810526 -28.396460 21.673949 -32.606551 6.409264 20.348230 -23.472903 -11.896140 0.000000 0.000000 0.000000 -7.125000 0.000000 0.000000 -6.184809 42.560001 -0.373923 0.000000 0.000000 0.000000 -0.806137 -3.779039 30.523228 -16.396930 -26.055920 -3.818668 -22.364136 3.053574 7.966182 0.000000 0.000000 0.000000 7.125000 0.000000 0.000000 3.866476 38.557811 0.614611
46.477271 16.779877 -4.635939 -48.356298 85.019904 -22.283014 0.000000 0.000000 0.000000 -17.413497 -2.130913 -32.449781 0.785309 5.657396 15.793572 0.124793 -5.293960 -6.809828 0.237746 -3.138202 -8.663835 0.000000 0.000000 0.000000 17.556037 20.142746 -36.368641 -2.690330 -10.175984 29.548529 -0.618346 -6.352287 -18.511335 -0.146007 -2.462504 6.785774 3.912546 -1.381850 14.862945 -0.021230 -1.032602 5.058247 -2.060435 -0.401059 -3.046260 2.218159 0.148914 2.645201 1.749578 1.117995 -19.057161 0.095713 0.444082 -6.208476 0.000000 0.000000 0.000000 3.888777 -1.812246 -28.404171 21.703724 -32.640542 6.425278 20.354392 -23.475216 -11.900818 0.000000 0.000000 0.000000 -7.125000 0.000000 0.000000 -6.180117 42.565503 -0.372738 0.000000 0.000000 0.000000 -0.812171 -3.763190 30.572773 -16.425981 -26.094764 -3.831432 -22.323720 2.985153 7.949761 0.000000 0.000000 0.000000 7.125000 0.000000 0.000000 3.899459 38.537151 0.621798
46.480233 16.779708 -4.636824 -48.523916 85.014645 -22.460932 0.000000 0.000000 0.000000 -17.400851 -2.122925 -32.436066 0.786739 5.662349 15.807832 0.125192 -5.309208 -6.822965 0.237614 -3.137243 -8.660962 0.000000 0.000000 0.000000 17.574573 20.142790 -36.340092 -2.689884 -10.175276 29.546045 -0.618739 -6.355424 -18.518632 -0.145284 -2.456182 6.768255 3.921571 -1.375965 14.858863 -0.021271 -1.024118 5.048147 -2.067065 -0.397374 -3.054273 2.245281 0.149233 2.639347 1.722196 1.114116 -19.027815 0.082821 0.442316 -6.197953 0.000000 0.000000 0.000000 3.913446 -1.814206 -28.408749 21.723741 -32.663328 6.436098 20.367375 -23.476578 -11.904306 0.000000 0.000000 0.000000 -7.125000 0.000000 0.000000 -6.169151 42.570500 -0.371314 0.000000 0.000000 0.000000 -0.813208 -3.753118 30.613948 -16.450559 -26.127787 -3.842198 -22.276719 2.938041 7.937549 0.000000 0.000000 0.000000 7.125000 0.000000 0.000000 3.938467 38.520668 0.629690
46.483372 16.779892 -4.637377 -48.595115 85.014647 -22.542195 0.000000 0.000000 0.000000 -17.401875 -2.105566 -32.422586 0.787477 5.664840 15.815027 0.124823 -5.338013 -6.824715 0.236045 -3.126908 -8.632171 0.000000 0.000000 0.000000 17.583890 20.141962 -36.311749 -2.689792 -10.175185 29.545955 -0.619755 -6.357365 -18.531007 -0.144638 -2.451193 6.754211 3.918885 -1.369593 14.851293 -0.023302 -1.017008 5.040301 -2.068908 -0.394235 -3.058057 2.265216 0.154130 2.629743 1.699117 1.116797 -18.999842 0.072113 0.444072 -6.187151 0.000000 0.000000 0.000000 3.940126 -1.823627 -28.414754 21.733984 -32.675047 6.441635 20.383994 -23.479535 -11.907992 0.000000 0.000000 0.000000 -7.125000 0.000000 0.000000 -6.154931 42.576125 -0.369653 0.000000 0.000000 0.000000 -0.814502 -3.760142 30.639606 -16.462554 -26.143749 -3.847457 -22.257170 2.907212 7.906055 0.000000 0.000000 0.000000 7.125000 0.000000 0.000000 3.951832 38.485483 0.635227
